<svg xmlns="http://www.w3.org/2000/svg" viewBox="0 0 24 24" fill="white">
  <path d="M12 2C6.48 2 2 6.48 2 12s4.48 10 10 10 10-4.48 10-10S17.52 2 12 2zm0 18c-4.41 0-8-3.59-8-8s3.59-8 8-8 8 3.59 8 8-3.59 8-8 8zm-1-13.5V9H9.5c-.83 0-1.5.67-1.5 1.5S8.67 12 9.5 12H11v1.5c0 .83.67 1.5 1.5 1.5s1.5-.67 1.5-1.5V12h1.5c.83 0 1.5-.67 1.5-1.5S14.33 9 13.5 9H12V6.5c0-.83-.67-1.5-1.5-1.5S9 5.67 9 6.5zM9.5 11c-.28 0-.5-.22-.5-.5s.22-.5.5-.5.5.22.5.5-.22.5-.5.5zm5 0c-.28 0-.5-.22-.5-.5s.22-.5.5-.5.5.22.5.5-.22.5-.5.5z"/>
</svg>